<?xml version="1.0" encoding="utf-8"?>
<!-- Generator: Adobe Illustrator 23.0.3, SVG Export Plug-In . SVG Version: 6.00 Build 0)  -->
<svg version="1.1" id="Layer_1" xmlns="http://www.w3.org/2000/svg" xmlns:xlink="http://www.w3.org/1999/xlink" x="0px" y="0px"
	 viewBox="0 0 500 101" style="enable-background:new 0 0 500 101;" xml:space="preserve">
<style type="text/css">
	.st0{fill:#1F4170;}
	.st1{fill:#3266AF;}
</style>
<path class="st0" d="M21.99,21.7v27.45h42.77v14.18H21.99v34.54H5.54V7.65H70.2V21.7H21.99z"/>
<path class="st0" d="M91.45,94.25c-5.48-3.01-9.76-7.2-12.84-12.57c-3.08-5.37-4.62-11.45-4.62-18.24c0-6.79,1.54-12.84,4.62-18.17
	c3.08-5.33,7.36-9.49,12.84-12.5c5.48-3.01,11.64-4.51,18.47-4.51c6.92,0,13.12,1.5,18.6,4.51c5.48,3.01,9.76,7.17,12.84,12.5
	c3.08,5.33,4.62,11.39,4.62,18.17c0,6.79-1.54,12.87-4.62,18.24c-3.08,5.37-7.36,9.56-12.84,12.57c-5.48,3.01-11.68,4.51-18.6,4.51
	C103.1,98.76,96.94,97.26,91.45,94.25z M124.35,79.05c3.8-3.95,5.69-9.15,5.69-15.59s-1.9-11.64-5.69-15.59
	c-3.8-3.95-8.61-5.93-14.43-5.93s-10.61,1.98-14.36,5.93c-3.75,3.95-5.63,9.15-5.63,15.59s1.88,11.64,5.63,15.59
	c3.75,3.95,8.54,5.93,14.36,5.93S120.56,83,124.35,79.05z"/>
<path class="st0" d="M169.9,94.25c-5.48-3.01-9.76-7.2-12.84-12.57c-3.08-5.37-4.62-11.45-4.62-18.24c0-6.79,1.54-12.84,4.62-18.17
	c3.08-5.33,7.36-9.49,12.84-12.5c5.48-3.01,11.64-4.51,18.47-4.51c6.92,0,13.12,1.5,18.6,4.51c5.48,3.01,9.76,7.17,12.84,12.5
	c3.08,5.33,4.62,11.39,4.62,18.17c0,6.79-1.54,12.87-4.62,18.24c-3.08,5.37-7.36,9.56-12.84,12.57c-5.48,3.01-11.68,4.51-18.6,4.51
	C181.55,98.76,175.39,97.26,169.9,94.25z M202.8,79.05c3.8-3.95,5.69-9.15,5.69-15.59s-1.9-11.64-5.69-15.59
	c-3.8-3.95-8.6-5.93-14.42-5.93s-10.61,1.98-14.36,5.93c-3.75,3.95-5.63,9.15-5.63,15.59s1.88,11.64,5.63,15.59
	c3.75,3.95,8.54,5.93,14.36,5.93S199.01,83,202.8,79.05z"/>
<path class="st1" d="M309.79,59.01c3.16,3.82,4.74,8.74,4.74,14.76c0,7.73-2.81,13.68-8.41,17.85c-5.61,4.17-13.9,6.25-24.86,6.25
	h-40.74V7.65h38.21c9.87,0,17.53,2.02,22.97,6.06c5.44,4.04,8.16,9.75,8.16,17.14c0,4.98-1.2,9.21-3.61,12.69
	c-2.4,3.48-5.72,6.08-9.93,7.8C302.13,52.63,306.62,55.18,309.79,59.01z M249.87,15.51v32.74h28.22c7.17,0,12.7-1.4,16.58-4.19
	c3.88-2.79,5.82-6.85,5.82-12.18c0-5.33-1.94-9.39-5.82-12.18c-3.88-2.79-9.41-4.19-16.58-4.19H249.87z M299.09,85.88
	c4.05-2.75,6.07-7.04,6.07-12.89c0-11.25-8.02-16.88-24.04-16.88h-31.25V90h31.25C289.05,90,295.04,88.63,299.09,85.88z"/>
<path class="st1" d="M330.85,2.24h8.98v95.63h-8.98V2.24z"/>
<path class="st1" d="M405,36.2c4.64,4.43,6.96,10.98,6.96,19.65v42.01h-8.6V87.29c-2.02,3.52-5,6.27-8.92,8.25
	c-3.92,1.98-8.58,2.96-13.98,2.96c-7.42,0-13.33-1.8-17.72-5.41c-4.39-3.61-6.58-8.38-6.58-14.31c0-5.76,2.04-10.39,6.14-13.92
	c4.09-3.52,10.61-5.28,19.55-5.28h21.13v-4.12c0-5.84-1.6-10.29-4.81-13.34c-3.21-3.05-7.89-4.58-14.04-4.58
	c-4.22,0-8.27,0.71-12.15,2.13c-3.88,1.42-7.21,3.37-10,5.86l-4.05-6.83c3.37-2.92,7.42-5.18,12.15-6.77
	c4.72-1.59,9.7-2.38,14.93-2.38C393.7,29.56,400.36,31.77,405,36.2z M394.88,87.75c3.63-2.36,6.33-5.78,8.1-10.25V66.42H382.1
	c-11.39,0-17.08,4.04-17.08,12.11c0,3.95,1.48,7.07,4.43,9.34c2.95,2.28,7.09,3.42,12.4,3.42
	C386.91,91.29,391.25,90.11,394.88,87.75z"/>
<path class="st1" d="M487.06,36.97c4.93,4.94,7.4,12.14,7.4,21.59v39.31h-8.98V59.46c0-7.04-1.73-12.41-5.19-16.11
	c-3.46-3.69-8.39-5.54-14.8-5.54c-7.17,0-12.84,2.17-17.02,6.51c-4.18,4.34-6.26,10.33-6.26,17.98v35.57h-8.98V2.24h8.98v39.69
	c2.45-3.95,5.82-7,10.12-9.15c4.3-2.15,9.24-3.22,14.8-3.22C475.48,29.56,482.12,32.03,487.06,36.97z"/>
<g>
	<path class="st0" d="M193.47,64.54l-9.08,3.58l9.08,3.58v1.53l-10.74-4.29V67.3l10.74-4.32V64.54z"/>
</g>
<g>
	<path class="st0" d="M115.32,67.3v1.63l-10.74,4.29v-1.53l9.08-3.58l-9.08-3.58v-1.56L115.32,67.3z"/>
</g>
</svg>
